# xmcd
#
# Track frame offsets: 
#        150
#        13395
#        28852
#        47659
#        68098
#        81012
#        98377
#        114396
#        133493
#        143936
#        159373
#        169677
#        180825
#        199755
#        219285
#
# Disc length: 3105 seconds
#
# Revision: 1
# Processed by: cddbd v1.5.2PL0 Copyright (c) Steve Scherf et al.
# Submitted via: ExactAudioCopyFreeDBPlugin 1.0
#
DISCID=c50c1f0f
DTITLE=Texas lightning - Meanwhile, back at the ranch
DYEAR=2006
DGENRE=Country
TTITLE0=Bad case of loving you
TTITLE1=Like a virgin
TTITLE2=No no never
TTITLE3=Kiss
TTITLE4=Over the mountains
TTITLE5=C'est la vie
TTITLE6=Highway to hell
TTITLE7=Dancing queen
TTITLE8=Man in the mirror
TTITLE9=Norwegian wood
TTITLE10=Smoke, smoke, smoke (that cigarette)
TTITLE11=Walking after midnight
TTITLE12=Raindrops keep falling on my head
TTITLE13=Walk on the wild side
TTITLE14=Blue bayou
EXTD=
EXTT0=
EXTT1=
EXTT2=
EXTT3=
EXTT4=
EXTT5=
EXTT6=
EXTT7=
EXTT8=
EXTT9=
EXTT10=
EXTT11=
EXTT12=
EXTT13=
EXTT14=
PLAYORDER=
